<?xml version="1.0" encoding="UTF-8" standalone="no"?>
<!-- Created with Inkscape (http://www.inkscape.org/) -->

<svg
   xmlns:dc="http://purl.org/dc/elements/1.1/"
   xmlns:cc="http://creativecommons.org/ns#"
   xmlns:rdf="http://www.w3.org/1999/02/22-rdf-syntax-ns#"
   xmlns:svg="http://www.w3.org/2000/svg"
   xmlns="http://www.w3.org/2000/svg"
   xmlns:sodipodi="http://sodipodi.sourceforge.net/DTD/sodipodi-0.dtd"
   xmlns:inkscape="http://www.inkscape.org/namespaces/inkscape"
   width="107.41657mm"
   height="46.295967mm"
   viewBox="0 0 107.41657 46.295967"
   version="1.1"
   id="svg8676"
   inkscape:export-filename="/home/coqueryada/image.png"
   inkscape:export-xdpi="71.323708"
   inkscape:export-ydpi="71.323708"
   inkscape:version="0.92.1 r15371"
   sodipodi:docname="CapEisti.svg">
  <defs
     id="defs8670" />
  <sodipodi:namedview
     id="base"
     pagecolor="#ffffff"
     bordercolor="#666666"
     borderopacity="1.0"
     inkscape:pageopacity="0.0"
     inkscape:pageshadow="2"
     inkscape:zoom="1.6937417"
     inkscape:cx="243.57649"
     inkscape:cy="32.247439"
     inkscape:document-units="mm"
     inkscape:current-layer="layer1"
     showgrid="false"
     fit-margin-top="3"
     fit-margin-left="4.5"
     fit-margin-right="5"
     fit-margin-bottom="3"
     inkscape:window-width="1893"
     inkscape:window-height="1052"
     inkscape:window-x="27"
     inkscape:window-y="0"
     inkscape:window-maximized="1" />
  <metadata
     id="metadata8673">
    <rdf:RDF>
      <cc:Work
         rdf:about="">
        <dc:format>image/svg+xml</dc:format>
        <dc:type
           rdf:resource="http://purl.org/dc/dcmitype/StillImage" />
        <dc:title></dc:title>
      </cc:Work>
    </rdf:RDF>
  </metadata>
  <g
     inkscape:label="Calque 1"
     inkscape:groupmode="layer"
     id="layer1"
     transform="translate(-101.18403,-192.11251)">
    <path
       inkscape:connector-curvature="0"
       style="color:#000000;font-style:normal;font-variant:normal;font-weight:normal;font-stretch:normal;font-size:7.27066469px;line-height:4.54416561px;font-family:sans-serif;font-variant-ligatures:normal;font-variant-position:normal;font-variant-caps:normal;font-variant-numeric:normal;font-variant-alternates:normal;font-feature-settings:normal;text-indent:0;text-align:start;text-decoration:none;text-decoration-line:none;text-decoration-style:solid;text-decoration-color:#000000;letter-spacing:0px;word-spacing:0px;text-transform:none;writing-mode:lr-tb;direction:ltr;text-orientation:mixed;dominant-baseline:auto;baseline-shift:baseline;text-anchor:start;white-space:normal;shape-padding:0;clip-rule:nonzero;display:inline;overflow:visible;visibility:visible;opacity:1;isolation:auto;mix-blend-mode:normal;color-interpolation:sRGB;color-interpolation-filters:linearRGB;solid-color:#000000;solid-opacity:1;vector-effect:none;fill:#1a237e;fill-opacity:1;fill-rule:nonzero;stroke:none;stroke-width:0.1;stroke-linecap:butt;stroke-linejoin:miter;stroke-miterlimit:4;stroke-dasharray:none;stroke-dashoffset:0;stroke-opacity:1;color-rendering:auto;image-rendering:auto;shape-rendering:auto;text-rendering:auto;enable-background:accumulate"
       d="m 141.87209,196.00586 c -1.48013,0 -2.68149,1.1552 -2.68149,2.5936 0,1.4384 1.20119,2.6014 2.68149,2.6014 1.4803,0 2.68149,-1.163 2.68149,-2.6014 0,-1.4384 -1.20136,-2.5936 -2.68149,-2.5936 z m -19.39262,0.01 v 0.3984 h 1.86707 v 3.2582 c 0,0.37 -0.0877,0.6493 -0.25011,0.8356 -0.16237,0.1863 -0.40013,0.2852 -0.71675,0.2852 -0.41902,0 -0.81107,-0.2147 -1.10898,-0.619 l -0.0413,-0.057 -0.22634,0.3266 0.0196,0.029 c 0.34207,0.4685 0.81734,0.7327 1.35703,0.7327 0.43204,0 0.78008,-0.1353 1.01596,-0.3968 0.23587,-0.2616 0.35708,-0.644 0.35708,-1.1286 v -3.6644 z m 3.67575,0 v 3.053 c 0,0.6712 0.19398,1.2089 0.55655,1.5761 0.36257,0.3673 0.89031,0.5607 1.55081,0.5607 0.6605,0 1.19031,-0.1934 1.55288,-0.5607 0.36257,-0.3672 0.55655,-0.9049 0.55655,-1.5761 v -3.053 h -0.40617 v 3.053 c 0,0.5576 -0.1584,0.9908 -0.44752,1.2852 -0.28912,0.2944 -0.71304,0.4547 -1.25574,0.4547 -0.5427,0 -0.96455,-0.1603 -1.25367,-0.4547 -0.28911,-0.2944 -0.44752,-0.7276 -0.44752,-1.2852 v -3.053 z m 5.73453,0 v 0.051 5.1325 h 0.40411 v -4.5155 l 3.31246,4.5155 h 0.4315 v -5.1837 h -0.39843 v 4.5139 l -3.31814,-4.5139 z m 5.79293,0 v 0.051 5.1325 h 0.40618 v -5.1837 z m 7.98039,0 v 5.1836 h 0.40618 v -1.695 h 1.4397 c 0.14257,0 0.27333,-0.01 0.40411,-0.027 l 1.19941,1.7224 h 0.48628 l -0.0568,-0.08 -1.2423,-1.7321 c 0.37632,-0.1085 0.69077,-0.2833 0.89659,-0.5509 0.21938,-0.2853 0.33383,-0.6565 0.33383,-1.0976 0,-0.542 -0.18418,-0.9765 -0.53124,-1.2718 -0.34706,-0.2953 -0.85282,-0.4511 -1.48983,-0.4511 z m -3.79098,0.3932 c 1.24608,0 2.26963,0.98 2.26963,2.1952 0,1.2152 -1.02374,2.2051 -2.26963,2.2051 -1.24589,0 -2.26963,-0.9899 -2.26963,-2.2051 0,-1.2152 1.02355,-2.1952 2.26963,-2.1952 z m 4.19716,0.01 h 1.44745 c 0.52311,0 0.92729,0.1205 1.1989,0.3442 0.2716,0.2237 0.41599,0.5521 0.41599,0.988 0,0.4434 -0.14583,0.7787 -0.41754,1.0077 -0.27171,0.2291 -0.67446,0.3535 -1.19735,0.3535 h -1.44745 z"
       id="path13869-6" />
    <path
       inkscape:connector-curvature="0"
       style="color:#000000;font-style:normal;font-variant:normal;font-weight:normal;font-stretch:normal;font-size:18.44635773px;line-height:11.52897263px;font-family:sans-serif;font-variant-ligatures:normal;font-variant-position:normal;font-variant-caps:normal;font-variant-numeric:normal;font-variant-alternates:normal;font-feature-settings:normal;text-indent:0;text-align:start;text-decoration:none;text-decoration-line:none;text-decoration-style:solid;text-decoration-color:#000000;letter-spacing:13.16730213px;word-spacing:0px;text-transform:none;writing-mode:lr-tb;direction:ltr;text-orientation:mixed;dominant-baseline:auto;baseline-shift:baseline;text-anchor:start;white-space:normal;shape-padding:0;clip-rule:nonzero;display:inline;overflow:visible;visibility:visible;opacity:1;isolation:auto;mix-blend-mode:normal;color-interpolation:sRGB;color-interpolation-filters:linearRGB;solid-color:#000000;solid-opacity:1;vector-effect:none;fill:#1a237e;fill-opacity:1;fill-rule:nonzero;stroke:none;stroke-width:0.47753814px;stroke-linecap:butt;stroke-linejoin:miter;stroke-miterlimit:4;stroke-dasharray:none;stroke-dashoffset:0;stroke-opacity:1;color-rendering:auto;image-rendering:auto;shape-rendering:auto;text-rendering:auto;enable-background:accumulate"
       d="m 185.17642,202.85966 c -1.30124,0 -2.40256,0.3085 -3.19257,0.8832 -0.79001,0.5746 -1.25884,1.4296 -1.25884,2.4406 0,1.2356 0.52129,2.0767 1.27228,2.6376 0.75099,0.5609 1.7156,0.8684 2.6572,1.156 0.94159,0.2876 1.86187,0.5564 2.51768,0.9777 0.6558,0.4213 1.05389,0.952 1.04541,1.894 v 0 0 c 0,0.6863 -0.30087,1.2213 -0.87488,1.6164 -0.57402,0.3951 -1.43108,0.6315 -2.49598,0.6315 -1.43276,0 -3.01346,-0.6503 -4.00544,-1.6914 l -0.21755,-0.2263 -0.65526,1.1193 0.13177,0.1318 c 1.16671,1.1636 2.95555,1.9446 4.72892,1.9446 1.37518,0 2.53608,-0.331 3.36723,-0.9457 0.83063,-0.6144 1.32023,-1.5242 1.32085,-2.5983 v 0 c 0.009,-1.2606 -0.50303,-2.1249 -1.24902,-2.7042 -0.74643,-0.5797 -1.70882,-0.8996 -2.65152,-1.1922 -0.94269,-0.2926 -1.86811,-0.5591 -2.52956,-0.9715 -0.66145,-0.4124 -1.06298,-0.9248 -1.06298,-1.8366 0,-0.5989 0.27433,-1.0641 0.80512,-1.4123 0.53078,-0.3483 1.32598,-0.5587 2.30993,-0.5587 1.05436,0 2.32395,0.3117 3.2241,0.9085 l 0.22065,0.1478 0.12041,-0.2418 0.44235,-0.8971 -0.17673,-0.1179 c -1.00134,-0.6638 -2.44171,-1.0976 -3.79357,-1.0976 z m -55.75525,0.018 c -3.76942,0 -6.85075,3.0044 -6.85075,6.7417 0,3.7373 3.08054,6.7593 6.85075,6.7593 1.76656,0 3.45171,-0.7093 4.68602,-1.8645 l 0.17105,-0.1612 -0.78962,-0.8945 -0.17673,0.1612 c -1.03884,0.9462 -2.41207,1.5182 -3.8716,1.5182 -3.11833,0 -5.62498,-2.4745 -5.62498,-5.5361 0,-3.0422 2.50575,-5.4989 5.62498,-5.4989 1.45953,0 2.84987,0.5706 3.86798,1.5317 l 0.19017,0.1794 0.15865,-0.2067 0.59376,-0.7731 -0.16485,-0.1494 c -1.2328,-1.1153 -2.8823,-1.8071 -4.66483,-1.8071 z m 11.19001,0.02 -6.02289,13.4638 h 1.36375 l 1.64847,-3.6954 h 7.1882 l 1.66656,3.6954 h 0.15296 1.21233 l -6.08076,-13.4638 z m 8.93382,0 v 13.4638 h 1.24334 v -4.3284 h 3.50108 c 1.61496,0 2.90866,-0.4089 3.80183,-1.2056 0.89318,-0.7968 1.36168,-1.9735 1.36168,-3.4184 0,-1.4092 -0.47022,-2.558 -1.36375,-3.3352 -0.89353,-0.7773 -2.18572,-1.1762 -3.79976,-1.1762 z m 11.06548,0 v 0.2398 4.0297 h 1.11569 v -4.2695 z m 3.92586,0 v 0.2398 13.224 h 8.97464 v -1.2428 h -7.73131 v -5.0173 h 6.66885 v -1.2604 h -6.66885 v -4.7005 h 7.49308 v -1.2428 z m 11.84372,0 v 0.2398 13.224 h 1.24333 v -13.4638 z m 14.15727,0 v 0.2398 1.003 h 4.32377 v 12.221 h 1.24334 v -12.221 h 4.32325 v -1.2428 z m 11.8184,0 v 0.2398 13.224 h 1.24334 v -13.4638 z m -51.56739,1.2428 h 3.48144 c 1.30102,0 2.29758,0.3019 2.96003,0.8517 0.66245,0.5497 1.01647,1.3489 1.01647,2.4365 0,1.107 -0.35561,1.9252 -1.01854,2.4882 -0.66293,0.563 -1.65802,0.8749 -2.95796,0.8749 h -3.48144 z m -9.61854,0.4703 3.0546,6.7928 h -6.0787 z"
       id="path13871-7" />
    <text
       id="text13875-5"
       y="221.09801"
       x="175.82945"
       style="font-style:normal;font-weight:normal;font-size:4.28833914px;line-height:2.68021178px;font-family:sans-serif;letter-spacing:0px;word-spacing:0px;fill:#ff3e3e;fill-opacity:1;stroke:none;stroke-width:0.18466128px;stroke-linecap:butt;stroke-linejoin:miter;stroke-opacity:1"
       xml:space="preserve"><tspan
         style="font-style:normal;font-variant:normal;font-weight:300;font-stretch:normal;font-family:Montserrat;-inkscape-font-specification:'Montserrat Light';fill:#ff3e3e;fill-opacity:1;stroke-width:0.18466128px"
         y="221.09801"
         x="175.82945"
         id="tspan13873-3"
         sodipodi:role="line">DEPUIS 1988</tspan></text>
    <path
       inkscape:connector-curvature="0"
       style="fill:none;fill-opacity:1;stroke:#1b237e;stroke-width:0.46313766;stroke-miterlimit:4;stroke-dasharray:none;stroke-opacity:0.96636089"
       d="m 110.93392,195.60946 -0.64957,0.939 c -0.93294,1.3477 -0.99075,3.7281 -0.12505,5.1113 0.95223,1.5211 1.47672,1.4007 1.93424,-0.4429 0.23664,-0.9506 0.0929,-2.2399 -0.39429,-3.5502 z m -4.68653,4.6003 c -0.0854,0 -0.15664,0.026 -0.21084,0.077 -0.66988,0.6277 1.59062,4.7059 3.14761,5.6787 1.73287,1.0822 2.08056,1.0657 1.97352,-0.093 -0.14576,-1.5755 -3.60017,-5.4756 -4.82037,-5.6555 -0.0316,0 -0.0615,-0.01 -0.0899,-0.01 z m 9.36325,0.5978 c -1.67505,0.2476 -3.78048,3.4822 -3.22926,4.9615 0.50073,1.3439 1.94045,0.649 2.90267,-1.4015 0.86989,-1.8535 1.0601,-3.4588 0.45733,-3.56 -0.0402,-0.01 -0.0835,-0.01 -0.13074,0 z m 1.14515,5.1222 c -0.9868,-0.032 -2.69349,2.6039 -2.44894,4.4049 0.23778,1.7495 1.04155,2.2032 2.02571,1.1441 0.74366,-0.8001 1.34432,-3.9665 0.95912,-5.057 -0.11819,-0.3347 -0.30817,-0.4845 -0.53589,-0.492 z m -9.69501,0.6237 c -0.12065,5e-4 -0.20759,0.037 -0.25374,0.1148 -0.0933,0.157 0.42217,1.1943 1.14464,2.3047 2.14739,3.3009 6.16598,5.219 5.13457,2.451 -0.56677,-1.5208 -4.85931,-4.8741 -6.02547,-4.8705 z m 12.07988,3.8685 c -0.14439,-0.02 -0.31984,0.1666 -0.63614,0.5432 -1.04274,1.2426 -1.36508,3.2994 -0.74414,4.7475 0.7363,1.717 1.37512,1.8599 2.04484,0.4573 0.5717,-1.1983 0.47573,-3.4571 -0.21498,-5.0586 -0.19184,-0.445 -0.30518,-0.6694 -0.44958,-0.6888 z m -9.63197,3.1151 c -0.0378,0 -0.0612,0.014 -0.0692,0.029 -0.27313,0.5195 2.41249,3.2374 4.04265,4.0917 1.79069,0.9398 4.0849,0.931 3.65456,-0.059 -0.43035,-0.9898 -3.12175,-2.7812 -5.32061,-3.5088 -0.932,-0.3083 -1.76655,-0.518 -2.15284,-0.5519 -0.0644,0 -0.11673,-0.01 -0.15451,0 z m 12.72532,0.9741 c -0.30547,0.019 -0.52111,0.5558 -0.66146,1.6051 -0.28696,2.1481 0.19803,3.68 1.49242,4.7098 l 1.11828,0.8893 0.40255,-1.0573 c 0.28121,-0.7381 0.0659,-1.8477 -0.71416,-3.6799 -0.6748,-1.5853 -1.1913,-2.4032 -1.5751,-2.4639 -0.0212,0 -0.0422,0 -0.0625,0 z m 4.51342,3.2825 c -0.62393,-0.038 -0.82109,1.1934 -0.35708,2.7409 0.37207,1.2414 0.81299,1.8641 1.90065,2.6862 1.95875,1.4804 2.56956,1.4514 2.33991,-0.1117 -0.18967,-1.291 -2.44655,-4.571 -3.59099,-5.2188 -0.10588,-0.06 -0.20336,-0.091 -0.29249,-0.096 z m 45.93673,1.5147 v 5e-4 c -0.21731,-0.018 -0.93622,0.6083 -2.91972,2.3988 -3.74923,3.3848 -6.79036,4.9441 -12.23594,6.2745 -6.58521,1.6086 -12.90403,1.4813 -19.4877,-0.3922 -2.23779,-0.6369 -2.3847,-0.6409 -0.87644,-0.025 2.47924,1.0119 8.58345,2.0043 12.24887,1.9916 3.65905,-0.013 10.55367,-1.2991 13.12323,-2.4484 4.33051,-1.9368 9.98169,-6.0478 10.20454,-7.4233 0.0368,-0.2262 0.0419,-0.3679 -0.0568,-0.3762 z m -57.71689,0.3803 c -0.28035,0 -0.52563,0.019 -0.7245,0.068 -0.92283,0.223 0.79007,1.6931 3.28765,2.8215 1.89794,0.8588 2.77362,1.0132 3.95532,0.7044 0.96386,-0.3789 1.37639,-0.6154 1.33118,-0.7654 -0.51748,-1.0301 -4.6097,-2.5097 -7.13755,-2.7838 -0.14583,-0.016 -0.28579,-0.028 -0.42013,-0.036 l -5e-4,0.001 c -0.10082,-0.01 -0.19801,-0.01 -0.29146,-0.01 z m 16.81086,0.5126 c -0.37912,-0.024 -0.46184,0.3202 -0.27182,1.0309 0.59789,2.2374 1.91718,3.8277 3.86385,4.6577 1.66626,0.7107 1.90774,0.7239 1.76165,-0.2899 -0.1461,-1.014 -1.47573,-2.8232 -3.30264,-4.2205 -0.99621,-0.7618 -1.67192,-1.1542 -2.05104,-1.1782 z m 5.88698,1.6382 c -0.031,0 -0.0597,0 -0.0858,0.01 -0.6704,0.1616 1.19117,3.661 2.55178,4.7966 1.10143,0.9192 2.79848,1.5677 3.59926,1.3746 0.1668,-0.04 -0.18945,-0.87 -0.79168,-1.8438 -1.04714,-1.6929 -4.31237,-4.3559 -5.27358,-4.3378 z m 18.68516,0.071 c -0.49721,0 -0.83642,0.073 -0.92397,0.2568 -0.22416,0.4703 2.28578,2.3453 3.94136,2.944 1.57277,0.5687 5.10227,0.1168 4.75475,-0.6087 -0.49347,-1.0306 -5.61755,-2.5748 -7.77214,-2.5921 z m -12.26126,1.2908 c -0.2165,-0.011 -0.37938,0.03 -0.47181,0.1339 -0.34239,0.3845 1.09833,2.4412 2.61431,3.7321 1.77034,1.5086 4.92233,1.8094 4.2509,0.4072 -0.75071,-1.568 -4.87795,-4.1957 -6.3934,-4.2726 z m 5.96656,0.05 c -0.29383,-0.01 -0.46312,0.046 -0.44804,0.184 0.1035,0.9438 2.47079,3.0433 4.19303,3.7186 1.80466,0.708 4.08939,0.5685 3.70882,-0.2263 -0.11123,-0.2333 -0.76924,-0.8965 -1.46141,-1.4743 -1.10482,-0.9227 -4.71916,-2.1631 -5.9924,-2.202 z m -25.67647,1.4408 c -1.03025,0 -2.1039,0.096 -3.10782,0.2883 -1.60412,0.3073 -1.6883,0.3868 -0.92088,0.8703 3.01699,1.9004 8.04951,2.1765 9.05992,0.695 0.7578,-1.1111 -1.94048,-1.8689 -5.03122,-1.8536 z m 40.7727,2.3073 c -1.47309,-0.025 -3.63596,2.9434 -4.20646,6.4384 -0.24727,1.5162 -0.16505,1.5083 2.47582,-0.2413 2.28255,-1.5123 3.48965,-3.8846 2.7559,-5.4173 -0.2542,-0.5309 -0.61279,-0.7727 -1.02526,-0.7798 z m -31.59032,0.5566 c -1.29187,0 -2.78904,0.2669 -4.35219,0.7891 -2.59145,0.8656 -2.61162,0.886 -1.4211,1.3865 1.61657,0.6793 5.43759,0.971 6.70399,0.5116 0.56105,-0.2035 1.37564,-0.6851 1.93683,-1.1829 0.56119,-0.4978 0.54006,-0.645 -0.29042,-1.0289 -0.69162,-0.3197 -1.57232,-0.4771 -2.57711,-0.4754 z m 24.64863,1.5653 c -1.56159,0.03 -5.97089,4.1521 -5.88181,5.6653 0.0616,1.0476 3.92829,-0.1787 5.43997,-1.725 h -0.003 c 1.19879,-1.2265 1.60986,-3.4648 0.71675,-3.8897 -0.0766,-0.036 -0.16822,-0.052 -0.27233,-0.05 z m -15.81196,0.4418 c -1.75972,-0.06 -6.65855,1.3782 -7.54579,2.2748 -0.56243,0.5689 -0.46947,0.6481 1.11673,0.9514 2.06378,0.3996 5.70563,-0.071 6.7045,-0.8661 0.39277,-0.3141 0.83053,-0.9081 0.97255,-1.3235 0.21753,-0.6347 0.0656,-0.7968 -0.93999,-1.004 -0.0873,-0.018 -0.19068,-0.028 -0.308,-0.033 z m 8.07651,0.5225 c -1.8345,0.017 -6.49605,2.6205 -6.99389,4.0726 -0.1951,0.5687 0.0114,0.6896 1.11983,0.6552 2.55387,-0.079 2.78039,-0.1207 3.94808,-0.7229 2.23582,-1.1534 3.58378,-3.3592 2.39676,-3.9228 -0.12153,-0.058 -0.281,-0.084 -0.47078,-0.082 z"
       id="path13877-5" />
  </g>
</svg>
